<?xml version="1.0" standalone="no"?>
<!DOCTYPE svg PUBLIC "-//W3C//DTD SVG 20010904//EN"
 "http://www.w3.org/TR/2001/REC-SVG-20010904/DTD/svg10.dtd">
<svg version="1.0" xmlns="http://www.w3.org/2000/svg"
 width="375.000000pt" height="375.000000pt" viewBox="0 0 375.000000 375.000000"
 preserveAspectRatio="xMidYMid meet">
<metadata>
Created by potrace 1.11, written by Peter Selinger 2001-2013
</metadata>
<g transform="translate(0.000000,375.000000) scale(0.100000,-0.100000)"
fill="#000000" stroke="none">
<path d="M2261 3509 c-10 -28 -8 -31 17 -40 37 -13 102 -109 73 -109 -6 0 -11
-7 -11 -15 0 -17 34 -38 45 -27 3 4 12 0 18 -9 7 -9 21 -19 32 -23 11 -3 28
-19 37 -36 10 -17 25 -30 36 -30 23 0 35 -23 21 -37 -12 -12 -1 -45 12 -37 18
11 108 -54 109 -79 0 -7 -39 -54 -89 -106 -24 -25 -24 -25 -32 -4 -4 12 -13
24 -19 28 -8 5 -5 12 9 22 24 16 29 48 7 40 -23 -9 -55 36 -63 88 -5 38 -14
57 -44 87 -21 21 -43 38 -51 38 -7 0 -33 14 -58 30 -51 34 -77 37 -123 14 -66
-34 -99 -92 -76 -135 6 -12 5 -20 -1 -24 -6 -4 -17 -23 -25 -42 -9 -20 -25
-43 -36 -51 -13 -9 -18 -20 -13 -31 3 -9 8 -27 9 -41 2 -14 4 -27 5 -30 1 -3
2 -8 1 -12 -2 -12 42 -37 73 -41 17 -2 31 -8 33 -14 6 -16 -24 -24 -50 -14
-13 5 -48 12 -78 15 -85 10 -107 15 -222 52 -118 38 -222 63 -322 77 -35 6
-77 -14 -129 -60 -31 -28 -35 -36 -30 -63 9 -42 19 -45 43 -12 22 31 117 77
126 62 3 -6 20 -14 38 -19 l32 -8 -28 -12 c-28 -11 -281 -166 -366 -224 -39
-27 -46 -28 -65 -17 -50 32 -206 110 -270 135 -44 18 -85 43 -114 71 -24 24
-48 41 -53 38 -5 -3 -9 0 -9 5 0 6 -8 11 -18 11 -20 0 -55 34 -65 63 -4 9 -13
17 -21 17 -16 0 -29 -27 -20 -41 3 -5 7 -23 9 -40 2 -16 13 -42 23 -57 11 -15
20 -30 21 -35 7 -56 19 -66 84 -65 47 0 72 -16 137 -92 29 -33 73 -73 97 -89
41 -28 43 -30 21 -37 -12 -4 -35 -16 -50 -27 -17 -13 -44 -20 -74 -21 -26 -1
-49 -6 -51 -13 -6 -18 68 -63 105 -63 18 0 46 -7 62 -15 31 -16 60 -11 60 11
0 14 49 64 63 64 12 0 46 -42 47 -57 0 -6 4 -13 8 -15 4 -1 39 -46 77 -98 39
-52 112 -150 163 -218 50 -68 92 -127 92 -132 0 -5 6 -13 13 -17 7 -4 34 -37
60 -72 43 -59 47 -70 48 -125 4 -162 9 -379 14 -666 3 -173 7 -359 9 -413 2
-79 0 -102 -13 -117 -9 -10 -97 -60 -196 -111 -345 -176 -395 -204 -393 -218
3 -15 48 -24 48 -9 0 5 8 5 17 0 21 -10 1139 -10 1148 0 12 12 -4 26 -78 66
-39 21 -99 54 -132 72 -33 18 -78 43 -100 55 -22 13 -67 37 -100 55 -33 18
-81 43 -108 58 l-47 25 5 131 c3 72 8 172 11 221 3 50 7 133 9 185 2 52 6 142
10 200 3 58 8 146 10 195 2 50 7 141 10 204 l6 115 88 110 c48 61 112 143 141
181 30 39 59 75 65 81 5 6 37 46 70 89 33 43 68 86 77 96 9 10 24 29 34 44 11
17 22 24 33 20 29 -12 51 -14 51 -5 0 5 -4 11 -9 14 -10 7 -9 31 2 42 6 6 10
-10 6 -18 -1 -2 7 -21 19 -44 19 -37 20 -43 6 -63 -8 -11 -21 -21 -29 -21 -23
0 -6 -27 19 -32 26 -5 67 8 77 24 4 6 5 26 2 43 -3 20 0 35 7 40 15 9 32 -14
26 -36 -7 -32 9 -39 37 -16 18 15 29 35 32 62 6 42 35 75 65 75 25 0 50 32 57
74 6 38 -5 47 -30 22 -28 -28 -47 21 -31 81 3 12 17 24 30 27 15 4 24 14 24
25 0 14 -5 18 -18 14 -23 -6 -58 56 -40 72 7 7 12 6 15 -2 14 -39 62 17 58 67
-1 17 12 41 39 74 65 79 86 100 86 88 0 -6 8 -13 19 -17 33 -10 61 -42 61 -68
0 -25 25 -44 35 -26 15 23 130 -87 140 -133 8 -33 33 -48 46 -27 11 19 39 18
68 -3 13 -10 28 -18 33 -18 5 0 19 -11 31 -25 19 -23 24 -24 41 -12 18 13 13
25 -93 231 -85 165 -109 221 -101 231 8 9 8 15 0 20 -19 12 -53 89 -41 93 17
6 13 27 -7 45 -21 19 -49 22 -54 6 -2 -7 -20 -3 -50 11 -26 12 -51 19 -57 16
-8 -5 -152 44 -246 84 -11 5 -64 25 -119 46 -54 21 -100 44 -103 51 -8 22 -20
15 -32 -18z m-495 -673 c28 -3 62 -10 75 -15 l24 -9 -25 -10 c-65 -26 -85
-103 -42 -161 12 -17 18 -31 12 -32 -104 -8 -101 -10 -119 124 -7 48 -14 94
-17 101 -4 9 2 13 18 11 13 -2 46 -5 74 -9z m-316 -195 c0 -13 -6 -19 -20 -18
-18 1 -18 2 -3 19 20 23 23 23 23 -1z m7 -106 c2 -22 5 -46 8 -52 5 -14 -11
-18 -17 -5 -3 6 -134 74 -148 77 -3 0 -14 6 -25 12 -16 10 -2 12 79 10 l99 -2
4 -40z m326 26 c4 -1 2 -11 -4 -23 -7 -13 -14 -40 -17 -62 -5 -45 -30 -111
-39 -102 -4 3 -6 45 -5 93 1 87 8 104 41 98 9 -2 20 -4 24 -4z m-623 -144 c0
-5 24 -32 54 -60 29 -29 72 -77 94 -109 23 -31 54 -65 70 -77 20 -13 37 -42
53 -83 29 -80 44 -104 95 -154 42 -40 49 -43 107 -45 29 0 85 30 119 65 34 34
8 -5 -41 -62 -44 -52 -46 -53 -89 -49 -34 3 -51 12 -71 34 -73 84 -101 119
-113 142 -7 14 -15 28 -18 31 -3 3 -16 22 -30 42 -14 21 -28 38 -32 38 -5 0
-8 6 -8 14 0 8 -4 16 -8 18 -4 2 -43 50 -87 108 -43 57 -82 109 -87 115 -4 5
-19 24 -33 41 -14 18 -25 38 -25 45 0 14 49 -39 50 -54z m950 34 c-5 -11 -15
-23 -20 -26 -10 -6 -160 -190 -174 -214 -5 -8 -3 -17 5 -22 10 -6 11 -13 4
-22 -24 -34 -99 -133 -107 -142 -5 -5 -2 6 6 26 8 20 18 52 21 70 3 19 8 41
10 49 2 8 7 30 10 49 14 82 75 151 182 205 28 14 54 30 58 36 11 18 16 10 5
-9z m-475 -750 c-3 -53 -7 -152 -11 -221 -3 -69 -6 -159 -5 -200 0 -41 -3 -80
-7 -87 -4 -7 -9 65 -10 160 -1 95 -3 234 -4 310 -2 76 -2 140 0 142 2 1 12 1
22 -2 18 -5 19 -13 15 -102z m1 -1206 c11 -8 14 -15 7 -15 -19 0 -16 -14 7
-36 12 -10 30 -29 42 -41 12 -13 27 -23 34 -23 6 0 17 -14 24 -30 11 -26 10
-33 -5 -50 -16 -18 -31 -20 -157 -20 -126 0 -158 -6 -128 -25 14 -9 576 -9
590 0 13 8 60 -2 60 -13 0 -6 -1040 -10 -1060 -3 -5 1 154 85 305 161 55 28
107 54 115 59 41 23 107 50 126 50 11 1 29 -6 40 -14z"/>
<path d="M1405 271 c-6 -11 9 -23 19 -14 9 9 7 23 -3 23 -6 0 -12 -4 -16 -9z"/>
</g>
</svg>
